<?xml version="1.0" encoding="UTF-8"?><svg id="b" xmlns="http://www.w3.org/2000/svg" width="314.43" height="316.94" viewBox="0 0 314.43 316.94"><g id="c"><path d="M0,245.39v-59.79c0-19.33,8.95-36.88,12.68-55.84,9.69-49.23-5.24-82.41,15.71-103.3S76.49,0,82.75,0h225.31c4.27,0,6.71,4.85,4.18,8.29-12.4,16.92-20.93,37.47-42,45.28-6.25,2.31-12.9,3.39-19.11,5.81s-12.2,6.59-14.54,12.83c-1.91,5.1-1.07,10.93,1.23,15.88,3.52,7.58,10.46,13.49,18.51,15.75,7.06,1.98,15.5,1.65,20.38,7.12,2.19,2.46,3.24,5.7,4.22,8.85,11.49,36.64,33.34,73.86,33.49,112.98.03,8.18-.93,16.53-4.42,23.93-11.06,23.47-34.79,15.91-50.23,1.36-11.43-10.77-20.99-23.35-32.12-34.42-13.31-13.24-39.77-35.88-53.16-11.45-9.97,18.17-16.36,36.05,20.76,50.3,9.66,3.71,18.71,8.94,26.55,15.71,4.43,3.83,8.2,7.79,11.19,11.92,7.79,10.75.04,25.84-13.23,26.16-57.29,1.39-99.78.12-150.68-.38-6.44-.06-16.12,1.81-21.33-2.62-4.67-3.97-4.84-11.35-.6-15.66,9.04-9.2,20.34-18.87,30.03-28.87,11.16-11.52,18.2-26.38,20.21-42.29.54-4.25,1.2-8.42,2.01-12.52,4.08-20.76,16.73-38.85,34.68-50.06,8.97-5.6,18.7-11.93,26.68-20.08,22.4-22.54,19.35-40.43-1.3-55.1-7.87-5.59-17.16-9.03-26.82-9.11-22.11-.18-38.33,15.89-49.97,44.63-.62,1.52-1.3,3.02-2.05,4.48-11.8,23.06-17.62,50.48-20.08,80.34h0c-5.61,33.7-21.18,49.17-43.92,51.49C7.69,261.47,0,254.34,0,245.39Z" fill="#231f20" stroke-width="0"/></g></svg>